<?xml version="1.0" encoding="UTF-8"?><svg xmlns="http://www.w3.org/2000/svg" xmlns:xlink="http://www.w3.org/1999/xlink" fill-opacity="1" color-rendering="auto" color-interpolation="auto" text-rendering="auto" stroke="black" stroke-linecap="square" width="908" stroke-miterlimit="10" shape-rendering="auto" stroke-opacity="1" fill="black" stroke-dasharray="none" font-weight="normal" stroke-width="1" height="372" font-family="'Dialog'" font-style="normal" stroke-linejoin="miter" font-size="12px" stroke-dashoffset="0" image-rendering="auto">
  <!--Generated by ySVG 2.5-->
  <defs id="genericDefs"/>
  <g>
    <defs id="defs1">
      <clipPath clipPathUnits="userSpaceOnUse" id="clipPath1">
        <path d="M0 0 L908 0 L908 372 L0 372 L0 0 Z"/>
      </clipPath>
      <clipPath clipPathUnits="userSpaceOnUse" id="clipPath2">
        <path d="M346 207 L1254 207 L1254 579 L346 579 L346 207 Z"/>
      </clipPath>
    </defs>
    <g fill="white" text-rendering="geometricPrecision" shape-rendering="geometricPrecision" transform="translate(-346,-207)" stroke="white">
      <rect x="346" width="908" height="372" y="207" clip-path="url(#clipPath2)" stroke="none"/>
    </g>
    <g text-rendering="geometricPrecision" stroke-miterlimit="1.45" shape-rendering="geometricPrecision" transform="matrix(1,0,0,1,-346,-207)" stroke-linecap="butt">
      <rect x="458" y="222" clip-path="url(#clipPath2)" fill="none" width="151" rx="4" ry="4" height="30"/>
      <text x="474.9209" xml:space="preserve" y="241.1543" clip-path="url(#clipPath2)" font-family="sans-serif" stroke="none">No CORS required !</text>
      <rect x="918" y="222" clip-path="url(#clipPath2)" fill="none" width="151" rx="4" ry="4" height="30"/>
      <text x="944.9873" xml:space="preserve" y="241.1543" clip-path="url(#clipPath2)" font-family="sans-serif" stroke="none">CORS required !</text>
    </g>
    <g fill="rgb(255,204,0)" text-rendering="geometricPrecision" shape-rendering="geometricPrecision" transform="matrix(1,0,0,1,-346,-207)" stroke="rgb(255,204,0)">
      <rect x="458" y="266" clip-path="url(#clipPath2)" width="151" rx="4" ry="4" height="64" stroke="none"/>
    </g>
    <g text-rendering="geometricPrecision" stroke-miterlimit="1.45" shape-rendering="geometricPrecision" transform="matrix(1,0,0,1,-346,-207)" stroke-linecap="butt">
      <rect x="458" y="266" clip-path="url(#clipPath2)" fill="none" width="151" rx="4" ry="4" height="64"/>
      <text x="470.8955" xml:space="preserve" y="288.1855" clip-path="url(#clipPath2)" font-family="sans-serif" stroke="none">http://localhost:9090</text>
      <text x="531.5928" xml:space="preserve" y="302.1543" clip-path="url(#clipPath2)" font-family="sans-serif" stroke="none"> </text>
      <text x="495.0479" xml:space="preserve" y="316.123" clip-path="url(#clipPath2)" font-family="sans-serif" stroke="none">web browser</text>
    </g>
    <g fill="rgb(255,204,0)" text-rendering="geometricPrecision" shape-rendering="geometricPrecision" transform="matrix(1,0,0,1,-346,-207)" stroke="rgb(255,204,0)">
      <rect x="866.5" y="266" clip-path="url(#clipPath2)" width="254" rx="4" ry="4" height="64" stroke="none"/>
    </g>
    <g text-rendering="geometricPrecision" stroke-miterlimit="1.45" shape-rendering="geometricPrecision" transform="matrix(1,0,0,1,-346,-207)" stroke-linecap="butt">
      <rect x="866.5" y="266" clip-path="url(#clipPath2)" fill="none" width="254" rx="4" ry="4" height="64"/>
      <text x="920.8057" xml:space="preserve" y="281.2012" clip-path="url(#clipPath2)" font-family="sans-serif" stroke="none">UI: http://localhost:4200</text>
      <text x="884.8936" xml:space="preserve" y="295.1699" clip-path="url(#clipPath2)" font-family="sans-serif" stroke="none">REST: http://localhost:8080/services</text>
      <text x="991.5928" xml:space="preserve" y="309.1387" clip-path="url(#clipPath2)" font-family="sans-serif" stroke="none"> </text>
      <text x="955.0479" xml:space="preserve" y="323.1074" clip-path="url(#clipPath2)" font-family="sans-serif" stroke="none">web browser</text>
    </g>
    <g fill="rgb(255,204,0)" text-rendering="geometricPrecision" shape-rendering="geometricPrecision" transform="matrix(1,0,0,1,-346,-207)" stroke="rgb(255,204,0)">
      <rect x="458" y="383" clip-path="url(#clipPath2)" width="151" rx="4" ry="4" height="64" stroke="none"/>
    </g>
    <g text-rendering="geometricPrecision" stroke-miterlimit="1.45" shape-rendering="geometricPrecision" transform="matrix(1,0,0,1,-346,-207)" stroke-linecap="butt">
      <rect x="458" y="383" clip-path="url(#clipPath2)" fill="none" width="151" rx="4" ry="4" height="64"/>
      <text x="470.8955" xml:space="preserve" y="400.1387" clip-path="url(#clipPath2)" font-family="sans-serif" stroke="none">http://localhost:9090</text>
      <text x="531.5928" xml:space="preserve" y="414.1074" clip-path="url(#clipPath2)" font-family="sans-serif" stroke="none"> </text>
      <text x="516.8682" xml:space="preserve" y="428.0762" clip-path="url(#clipPath2)" font-family="sans-serif" stroke="none">nginx</text>
      <text x="382.3955" xml:space="preserve" y="480.1543" clip-path="url(#clipPath2)" font-family="sans-serif" stroke="none">http://localhost:4200</text>
      <text x="570.7559" xml:space="preserve" y="480.1543" clip-path="url(#clipPath2)" font-family="sans-serif" stroke="none">http://localhost:8080/services</text>
    </g>
    <g fill="rgb(255,204,0)" text-rendering="geometricPrecision" shape-rendering="geometricPrecision" transform="matrix(1,0,0,1,-346,-207)" stroke="rgb(255,204,0)">
      <rect x="361" y="500" clip-path="url(#clipPath2)" width="145" rx="4" ry="4" height="64" stroke="none"/>
    </g>
    <g text-rendering="geometricPrecision" stroke-miterlimit="1.45" shape-rendering="geometricPrecision" transform="matrix(1,0,0,1,-346,-207)" stroke-linecap="butt">
      <rect x="361" y="500" clip-path="url(#clipPath2)" fill="none" width="145" rx="4" ry="4" height="64"/>
      <text x="370.8955" xml:space="preserve" y="529.1699" clip-path="url(#clipPath2)" font-family="sans-serif" stroke="none">http://localhost:4200</text>
      <text x="407.4551" xml:space="preserve" y="543.1387" clip-path="url(#clipPath2)" font-family="sans-serif" stroke="none">ng serve</text>
    </g>
    <g fill="rgb(255,204,0)" text-rendering="geometricPrecision" shape-rendering="geometricPrecision" transform="matrix(1,0,0,1,-346,-207)" stroke="rgb(255,204,0)">
      <rect x="565" y="500" clip-path="url(#clipPath2)" width="220" rx="4" ry="4" height="64" stroke="none"/>
    </g>
    <g text-rendering="geometricPrecision" stroke-miterlimit="1.45" shape-rendering="geometricPrecision" transform="matrix(1,0,0,1,-346,-207)" stroke-linecap="butt">
      <rect x="565" y="500" clip-path="url(#clipPath2)" fill="none" width="220" rx="4" ry="4" height="64"/>
      <text x="585.7559" xml:space="preserve" y="529.1699" clip-path="url(#clipPath2)" font-family="sans-serif" stroke="none">http://localhost:8080/services</text>
      <text x="609.873" xml:space="preserve" y="543.1387" clip-path="url(#clipPath2)" font-family="sans-serif" stroke="none">java web server REST</text>
    </g>
    <g fill="rgb(255,204,0)" text-rendering="geometricPrecision" shape-rendering="geometricPrecision" transform="matrix(1,0,0,1,-346,-207)" stroke="rgb(255,204,0)">
      <rect x="815" y="500" clip-path="url(#clipPath2)" width="145" rx="4" ry="4" height="64" stroke="none"/>
    </g>
    <g text-rendering="geometricPrecision" stroke-miterlimit="1.45" shape-rendering="geometricPrecision" transform="matrix(1,0,0,1,-346,-207)" stroke-linecap="butt">
      <rect x="815" y="500" clip-path="url(#clipPath2)" fill="none" width="145" rx="4" ry="4" height="64"/>
      <text x="824.8955" xml:space="preserve" y="529.1699" clip-path="url(#clipPath2)" font-family="sans-serif" stroke="none">http://localhost:4200</text>
      <text x="861.4551" xml:space="preserve" y="543.1387" clip-path="url(#clipPath2)" font-family="sans-serif" stroke="none">ng serve</text>
    </g>
    <g fill="rgb(255,204,0)" text-rendering="geometricPrecision" shape-rendering="geometricPrecision" transform="matrix(1,0,0,1,-346,-207)" stroke="rgb(255,204,0)">
      <rect x="1019" y="500" clip-path="url(#clipPath2)" width="220" rx="4" ry="4" height="64" stroke="none"/>
    </g>
    <g text-rendering="geometricPrecision" stroke-miterlimit="1.45" shape-rendering="geometricPrecision" transform="matrix(1,0,0,1,-346,-207)" stroke-linecap="butt">
      <rect x="1019" y="500" clip-path="url(#clipPath2)" fill="none" width="220" rx="4" ry="4" height="64"/>
      <text x="1039.7559" xml:space="preserve" y="529.1699" clip-path="url(#clipPath2)" font-family="sans-serif" stroke="none">http://localhost:8080/services</text>
      <text x="1063.873" xml:space="preserve" y="543.1387" clip-path="url(#clipPath2)" font-family="sans-serif" stroke="none">java web server REST</text>
      <path fill="none" d="M533.5 330.0208 L533.5 375.0083" clip-path="url(#clipPath2)"/>
      <path d="M533.5 383.0083 L538.5 371.0083 L533.5 374.0083 L528.5 371.0083 Z" clip-path="url(#clipPath2)" stroke="none"/>
      <path fill="none" d="M506.1318 447.0208 L466.0588 493.9062" clip-path="url(#clipPath2)"/>
      <path d="M460.8611 499.9875 L472.4586 494.1141 L466.7086 493.146 L464.8568 487.6169 Z" clip-path="url(#clipPath2)" stroke="none"/>
      <path fill="none" d="M572.226 447.0208 L630.1187 494.8897" clip-path="url(#clipPath2)"/>
      <path d="M636.2841 499.9875 L630.2222 488.4874 L629.3481 494.2524 L623.8499 496.1941 Z" clip-path="url(#clipPath2)" stroke="none"/>
      <path fill="none" d="M978.9949 330.0208 L905.287 492.7344" clip-path="url(#clipPath2)"/>
      <path d="M901.986 500.0216 L911.492 491.154 L905.6996 491.8235 L902.383 487.0277 Z" clip-path="url(#clipPath2)" stroke="none"/>
      <path fill="none" d="M1012.0419 330.0208 L1106.4738 493.0985" clip-path="url(#clipPath2)"/>
      <path d="M1110.4825 500.0216 L1108.7963 487.1315 L1105.9727 492.2331 L1100.1425 492.1425 Z" clip-path="url(#clipPath2)" stroke="none"/>
    </g>
  </g>
</svg>
