<?xml version="1.0" encoding="UTF-8"?><svg xmlns="http://www.w3.org/2000/svg" xmlns:xlink="http://www.w3.org/1999/xlink" fill-opacity="1" color-rendering="auto" color-interpolation="auto" text-rendering="auto" stroke="black" stroke-linecap="square" width="506" stroke-miterlimit="10" shape-rendering="auto" stroke-opacity="1" fill="black" stroke-dasharray="none" font-weight="normal" stroke-width="1" height="599" font-family="'Dialog'" font-style="normal" stroke-linejoin="miter" font-size="12px" stroke-dashoffset="0" image-rendering="auto">
  <!--Generated by ySVG 2.5-->
  <defs id="genericDefs"/>
  <g>
    <g fill="white" text-rendering="geometricPrecision" shape-rendering="geometricPrecision" transform="translate(-233,0)" stroke="white">
      <rect x="233" width="506" height="599" y="0" clip-path="url(#clipPath2)" stroke="none"/>
    </g>
    <g stroke-linecap="round" transform="matrix(1,0,0,1,-233,0)" stroke-dashoffset="2" text-rendering="geometricPrecision" shape-rendering="geometricPrecision" stroke-dasharray="0,8" stroke-width="2" stroke-miterlimit="1.45">
      <rect x="248.4" y="271.2" clip-path="url(#clipPath2)" fill="none" width="475" rx="4" ry="4" height="312.05"/>
    </g>
    <g text-rendering="geometricPrecision" stroke-miterlimit="1.45" shape-rendering="geometricPrecision" font-family="sans-serif" transform="matrix(1,0,0,1,-233,0)" stroke-linecap="butt">
      <text x="254.4" xml:space="preserve" y="288.3387" clip-path="url(#clipPath2)" stroke="none">Small Data Center</text>
      <text x="254.4" xml:space="preserve" y="312.388" clip-path="url(#clipPath2)" stroke="none">CIDR = 192.168.110.0/24</text>
    </g>
    <g fill="rgb(255,204,0)" text-rendering="geometricPrecision" shape-rendering="geometricPrecision" transform="matrix(1,0,0,1,-233,0)" stroke="rgb(255,204,0)">
      <rect x="438.25" y="143.1" clip-path="url(#clipPath2)" width="92" rx="4" ry="4" height="52" stroke="none"/>
    </g>
    <g text-rendering="geometricPrecision" stroke-miterlimit="1.45" shape-rendering="geometricPrecision" transform="matrix(1,0,0,1,-233,0)" stroke-linecap="butt">
      <rect x="438.25" y="143.1" clip-path="url(#clipPath2)" fill="none" width="92" rx="4" ry="4" height="52"/>
      <text x="468.4971" xml:space="preserve" y="159.2856" clip-path="url(#clipPath2)" font-family="sans-serif" stroke="none">AWS </text>
      <text x="456.0137" xml:space="preserve" y="173.2543" clip-path="url(#clipPath2)" font-family="sans-serif" stroke="none">OpenVPN</text>
      <text x="465.2568" xml:space="preserve" y="187.2231" clip-path="url(#clipPath2)" font-family="sans-serif" stroke="none">server</text>
    </g>
    <g fill="rgb(255,204,0)" text-rendering="geometricPrecision" shape-rendering="geometricPrecision" transform="matrix(1,0,0,1,-233,0)" stroke="rgb(255,204,0)">
      <rect x="424" y="428.5" clip-path="url(#clipPath2)" width="120.5" rx="4" ry="4" height="57" stroke="none"/>
    </g>
    <g text-rendering="geometricPrecision" stroke-miterlimit="1.45" shape-rendering="geometricPrecision" transform="matrix(1,0,0,1,-233,0)" stroke-linecap="butt">
      <rect x="424" y="428.5" clip-path="url(#clipPath2)" fill="none" width="120.5" rx="4" ry="4" height="57"/>
      <text x="450.7666" xml:space="preserve" y="454.1699" clip-path="url(#clipPath2)" font-family="sans-serif" stroke="none">k8s master</text>
      <text x="436.5371" xml:space="preserve" y="468.1387" clip-path="url(#clipPath2)" font-family="sans-serif" stroke="none">192.168.110.10</text>
    </g>
    <g fill="rgb(255,204,0)" text-rendering="geometricPrecision" shape-rendering="geometricPrecision" transform="matrix(1,0,0,1,-233,0)" stroke="rgb(255,204,0)">
      <rect x="424" y="15" clip-path="url(#clipPath2)" width="120.5" rx="4" ry="4" height="52" stroke="none"/>
    </g>
    <g text-rendering="geometricPrecision" stroke-miterlimit="1.45" shape-rendering="geometricPrecision" transform="matrix(1,0,0,1,-233,0)" stroke-linecap="butt">
      <rect x="424" y="15" clip-path="url(#clipPath2)" fill="none" width="120.5" rx="4" ry="4" height="52"/>
      <text x="447.374" xml:space="preserve" y="31.1855" clip-path="url(#clipPath2)" font-family="sans-serif" stroke="none">WorkStation</text>
      <text x="460.4229" xml:space="preserve" y="45.1543" clip-path="url(#clipPath2)" font-family="sans-serif" stroke="none">internet</text>
      <text x="437.627" xml:space="preserve" y="59.123" clip-path="url(#clipPath2)" font-family="sans-serif" stroke="none">OpenVPN client</text>
    </g>
    <g fill="rgb(255,204,0)" text-rendering="geometricPrecision" shape-rendering="geometricPrecision" transform="matrix(1,0,0,1,-233,0)" stroke="rgb(255,204,0)">
      <rect x="259" y="528.25" clip-path="url(#clipPath2)" width="109.5" rx="4" ry="4" height="40" stroke="none"/>
    </g>
    <g text-rendering="geometricPrecision" stroke-miterlimit="1.45" shape-rendering="geometricPrecision" transform="matrix(1,0,0,1,-233,0)" stroke-linecap="butt">
      <rect x="259" y="528.25" clip-path="url(#clipPath2)" fill="none" width="109.5" rx="4" ry="4" height="40"/>
      <text x="271.2051" xml:space="preserve" y="545.4199" clip-path="url(#clipPath2)" font-family="sans-serif" stroke="none">k8s worker 01</text>
      <text x="266.0371" xml:space="preserve" y="559.3887" clip-path="url(#clipPath2)" font-family="sans-serif" stroke="none">192.168.110.20</text>
    </g>
    <g fill="rgb(255,204,0)" text-rendering="geometricPrecision" shape-rendering="geometricPrecision" transform="matrix(1,0,0,1,-233,0)" stroke="rgb(255,204,0)">
      <rect x="380.5" y="528.25" clip-path="url(#clipPath2)" width="100.5" rx="4" ry="4" height="40" stroke="none"/>
    </g>
    <g text-rendering="geometricPrecision" stroke-miterlimit="1.45" shape-rendering="geometricPrecision" transform="matrix(1,0,0,1,-233,0)" stroke-linecap="butt">
      <rect x="380.5" y="528.25" clip-path="url(#clipPath2)" fill="none" width="100.5" rx="4" ry="4" height="40"/>
      <text x="388.2051" xml:space="preserve" y="545.4199" clip-path="url(#clipPath2)" font-family="sans-serif" stroke="none">k8s worker 02</text>
      <text x="383.0371" xml:space="preserve" y="559.3887" clip-path="url(#clipPath2)" font-family="sans-serif" stroke="none">192.168.110.30</text>
    </g>
    <g fill="rgb(255,204,0)" text-rendering="geometricPrecision" shape-rendering="geometricPrecision" transform="matrix(1,0,0,1,-233,0)" stroke="rgb(255,204,0)">
      <rect x="493" y="528.25" clip-path="url(#clipPath2)" width="100.5" rx="4" ry="4" height="40" stroke="none"/>
    </g>
    <g text-rendering="geometricPrecision" stroke-miterlimit="1.45" shape-rendering="geometricPrecision" transform="matrix(1,0,0,1,-233,0)" stroke-linecap="butt">
      <rect x="493" y="528.25" clip-path="url(#clipPath2)" fill="none" width="100.5" rx="4" ry="4" height="40"/>
      <text x="500.7051" xml:space="preserve" y="545.4199" clip-path="url(#clipPath2)" font-family="sans-serif" stroke="none">k8s worker 03</text>
      <text x="495.5371" xml:space="preserve" y="559.3887" clip-path="url(#clipPath2)" font-family="sans-serif" stroke="none">192.168.110.40</text>
    </g>
    <g fill="rgb(255,204,0)" text-rendering="geometricPrecision" shape-rendering="geometricPrecision" transform="matrix(1,0,0,1,-233,0)" stroke="rgb(255,204,0)">
      <rect x="606.5" y="528.25" clip-path="url(#clipPath2)" width="100.5" rx="4" ry="4" height="40" stroke="none"/>
    </g>
    <g text-rendering="geometricPrecision" stroke-miterlimit="1.45" shape-rendering="geometricPrecision" transform="matrix(1,0,0,1,-233,0)" stroke-linecap="butt">
      <rect x="606.5" y="528.25" clip-path="url(#clipPath2)" fill="none" width="100.5" rx="4" ry="4" height="40"/>
      <text x="614.2051" xml:space="preserve" y="545.4199" clip-path="url(#clipPath2)" font-family="sans-serif" stroke="none">k8s worker 04</text>
      <text x="609.0371" xml:space="preserve" y="559.3887" clip-path="url(#clipPath2)" font-family="sans-serif" stroke="none">192.168.110.50</text>
    </g>
    <g fill="rgb(255,204,0)" text-rendering="geometricPrecision" shape-rendering="geometricPrecision" transform="matrix(1,0,0,1,-233,0)" stroke="rgb(255,204,0)">
      <rect x="424" y="263.625" clip-path="url(#clipPath2)" width="120.5" rx="4" ry="4" height="68" stroke="none"/>
    </g>
    <g text-rendering="geometricPrecision" stroke-miterlimit="1.45" shape-rendering="geometricPrecision" transform="matrix(1,0,0,1,-233,0)" stroke-linecap="butt">
      <rect x="424" y="263.625" clip-path="url(#clipPath2)" fill="none" width="120.5" rx="4" ry="4" height="68"/>
      <text x="459.8457" xml:space="preserve" y="273.8418" clip-path="url(#clipPath2)" font-family="sans-serif" stroke="none">RPi 3 ctl</text>
      <text x="441.2949" xml:space="preserve" y="287.8105" clip-path="url(#clipPath2)" font-family="sans-serif" stroke="none">NAT + firewall</text>
      <text x="435.7197" xml:space="preserve" y="301.7793" clip-path="url(#clipPath2)" font-family="sans-serif" stroke="none">OpenVPN client </text>
      <text x="435.5674" xml:space="preserve" y="315.748" clip-path="url(#clipPath2)" font-family="sans-serif" stroke="none">default gateway</text>
      <text x="440.3545" xml:space="preserve" y="329.7168" clip-path="url(#clipPath2)" font-family="sans-serif" stroke="none">192.168.110.1</text>
    </g>
    <g fill="rgb(255,204,0)" text-rendering="geometricPrecision" shape-rendering="geometricPrecision" transform="matrix(1,0,0,1,-233,0)" stroke="rgb(255,204,0)">
      <rect x="586.5" y="360.0625" clip-path="url(#clipPath2)" width="120.5" rx="4" ry="4" height="40" stroke="none"/>
    </g>
    <g text-rendering="geometricPrecision" stroke-miterlimit="1.45" shape-rendering="geometricPrecision" transform="matrix(1,0,0,1,-233,0)" stroke-linecap="butt">
      <rect x="586.5" y="360.0625" clip-path="url(#clipPath2)" fill="none" width="120.5" rx="4" ry="4" height="40"/>
      <text x="608.5352" xml:space="preserve" y="377.2324" clip-path="url(#clipPath2)" font-family="sans-serif" stroke="none">data storage</text>
      <text x="595.2197" xml:space="preserve" y="391.2012" clip-path="url(#clipPath2)" font-family="sans-serif" stroke="none">192.168.110.100</text>
    </g>
    <g text-rendering="geometricPrecision" shape-rendering="geometricPrecision" transform="matrix(1,0,0,1,215.6729,370.0825)">
      <g clip-path="url(#clipPath3)">
        <svg xml:space="preserve" opacity="1" writing-mode="lr-tb" stop-color="rgb(0, 0, 0)" shape-rendering="auto" glyph-orientation-horizontal="0deg" color-profile="auto" lighting-color="rgb(255, 255, 255)" color="rgb(0, 0, 0)" font-weight="400" alignment-baseline="auto" font-style="normal" version="1.1" color-interpolation-filters="linearrgb" text-anchor="start" stroke-linecap="butt" color-interpolation="srgb" font-variant="normal" word-spacing="normal" fill-opacity="1" text-rendering="auto" clip-path="none" text-decoration="none" letter-spacing="normal" viewBox="-0.998 -0.189 71 20" glyph-orientation-vertical="auto" display="inline" font-size-adjust="none" overflow="hidden" fill="rgb(0, 0, 0)" font-stretch="normal" stroke-dasharray="none" stroke-miterlimit="4" stop-opacity="1" color-rendering="auto" font-size="12" pointer-events="visiblepainted" mask="none" direction="ltr" baseline-shift="baseline" enable-background="new -0.998 -0.189 71 20" fill-rule="nonzero" image-rendering="auto" stroke-dashoffset="0" width="71px" marker-end="none" clip="auto" cursor="auto" stroke="none" filter="none" visibility="visible" kerning="auto" stroke-width="1" font-family="&quot;Arial&quot;,&quot;Helvetica&quot;,sans-serif" flood-opacity="1" clip-rule="nonzero" src="none" height="20px" unicode-bidi="normal" stroke-linejoin="miter" stroke-opacity="1" flood-color="rgb(0, 0, 0)" dominant-baseline="auto" marker-start="none" x="0px" marker-mid="none" y="0px">
<defs>
<clipPath clipPathUnits="userSpaceOnUse" id="clipPath1">
              <path d="M0 0 L506 0 L506 599 L0 599 L0 0 Z"/>
            </clipPath>
            <clipPath clipPathUnits="userSpaceOnUse" id="clipPath2">
              <path d="M233 0 L739 0 L739 599 L233 599 L233 0 Z"/>
            </clipPath>
            <clipPath clipPathUnits="userSpaceOnUse" id="clipPath3">
              <path d="M-215.6729 -370.0825 L290.3271 -370.0825 L290.3271 228.9175 L-215.6729 228.9175 L-215.6729 -370.0825 Z"/>
            </clipPath>
          </defs>
<linearGradient gradientTransform="matrix(1 0 0 -1 -97.6001 -245.2793)" x1="166.2588" x2="97.0793" gradientUnits="userSpaceOnUse" y1="-255.0679" y2="-255.0679" id="svg1.SVGID_1_">
	<stop offset="0" style="stop-color:#6E6E6E"/>
	<stop offset="0.1059" style="stop-color:#707070"/>
	<stop offset="0.1647" style="stop-color:#787878"/>
	<stop offset="0.1939" style="stop-color:#808080"/>
	<stop offset="0.4146" style="stop-color:#838383"/>
	<stop offset="0.5499" style="stop-color:#8B8B8B"/>
	<stop offset="0.6622" style="stop-color:#999999"/>
	<stop offset="0.7614" style="stop-color:#AEAEAE"/>
	<stop offset="0.7818" style="stop-color:#B3B3B3"/>
</linearGradient>
<path fill="url(#svg1.SVGID_1_)" d="M67.531,7.236c0.005,0,0.017,0.002,0.017,0.002l-0.062-0.031c-0.027-0.015-0.055-0.027-0.082-0.041  l-11.06-5.477c-1.225-0.615-3.346-1.203-4.713-1.307c0,0-5.071-0.383-16.858-0.383C25.138,0,17.44,0.431,17.44,0.431  c-1.37,0.077-3.495,0.637-4.724,1.243L1.976,7.02h0.001C0.852,7.342,0,8.412,0,9.607v6.232c0,1.371,1.118,2.584,2.484,2.695  c0,0,12.681,1.037,32.001,1.043c19.943,0.006,32.001-1.031,32.001-1.031c1.365-0.118,2.481-1.336,2.481-2.707V9.607  C68.971,8.613,68.378,7.705,67.531,7.236z M34.96,5.869c-0.091,0-0.181,0-0.272,0c0.029,0,0.058,0,0.087,0  C34.837,5.869,34.898,5.869,34.96,5.869z M33.312,5.873c-0.047,0-0.094,0-0.141,0C33.218,5.873,33.265,5.873,33.312,5.873z"/>
<linearGradient gradientTransform="matrix(1 0 0 -1 -97.6001 -245.2793)" x1="161.5615" x2="102.6104" gradientUnits="userSpaceOnUse" y1="-258.8867" y2="-258.8867" id="svg1.SVGID_2_">
	<stop offset="0" style="stop-color:#3C89C9"/>
	<stop offset="0.0948" style="stop-color:#579FD8"/>
	<stop offset="0.2096" style="stop-color:#70B3E6"/>
	<stop offset="0.338" style="stop-color:#84C3F1"/>
	<stop offset="0.4855" style="stop-color:#92CFF9"/>
	<stop offset="0.6692" style="stop-color:#9AD5FE"/>
	<stop offset="1" style="stop-color:#9CD7FF"/>
</linearGradient>
<path fill="url(#svg1.SVGID_2_)" stroke-width="0.3116" d="M62.746,9.363  c-0.643-0.209-18.186-0.222-28.259-0.222C26.25,9.142,6.7,9.177,6.7,9.177h0.001c-0.961,0.274-1.689,1.19-1.689,2.212v3.878  c0,1.172,0.956,2.209,2.124,2.304c0,0,10.837,0.498,27.351,0.504c17.047,0.004,27.355-0.494,27.355-0.494  c1.167-0.101,2.121-1.142,2.121-2.313V11.39C63.962,10.539,63.389,9.572,62.746,9.363z" stroke-miterlimit="10" stroke="#8D8D8D"/>
<path fill="#FFFFFF" d="M62.746,9.363c-0.643-0.209-18.186-0.222-28.259-0.222  C26.25,9.142,6.7,9.177,6.7,9.177h0.001c-0.961,0.274-1.689,1.19-1.689,2.212v3.878l58.95-2.039v-1.839  C63.962,10.539,63.389,9.572,62.746,9.363z" enable-background="new    " opacity="0.29"/>
<rect x="66.322" y="10.801" fill="#C8FF00" width="2.805" height="1.143" stroke="#717171" stroke-width="0.0623" stroke-miterlimit="10"/>
<polygon fill="#4D4D4D" stroke-width="0.3739" stroke-miterlimit="10" points="49.29,10.748 42.436,10.748   42.436,15.734 44.512,15.734 44.512,16.412 47.213,16.412 47.212,15.734 49.29,15.734 " stroke="#D9F1FF"/>
<polygon fill="#4D4D4D" stroke-width="0.3739" stroke-miterlimit="10" points="37.79,10.748 30.935,10.748   30.935,15.734 33.012,15.734 33.012,16.412 35.713,16.412 35.712,15.734 37.79,15.734 " stroke="#D9F1FF"/>
<polygon fill="#4D4D4D" stroke-width="0.3739" stroke-miterlimit="10" points="26.29,10.748 19.435,10.748   19.435,15.734 21.512,15.734 21.512,16.412 24.213,16.412 24.212,15.734 26.29,15.734 " stroke="#D9F1FF"/>
<polygon fill="#4D4D4D" stroke-width="0.3739" stroke-miterlimit="10" points="14.79,10.748 7.935,10.748   7.935,15.734 10.012,15.734 10.012,16.412 12.713,16.412 12.712,15.734 14.79,15.734 " stroke="#D9F1FF"/>
<polygon fill="#4D4D4D" stroke-width="0.3739" stroke-miterlimit="10" points="60.79,10.748 53.936,10.748   53.936,15.734 56.012,15.734 56.012,16.412 58.713,16.412 58.712,15.734 60.79,15.734 " stroke="#D9F1FF"/>
</svg>
      </g>
    </g>
    <g text-rendering="geometricPrecision" stroke-miterlimit="1.45" shape-rendering="geometricPrecision" transform="matrix(1,0,0,1,-233,0)" stroke-linecap="butt">
      <path fill="none" d="M484.25 66.989 L484.25 135.1235" clip-path="url(#clipPath2)"/>
      <path d="M484.25 143.1235 L489.25 131.1235 L484.25 134.1235 L479.25 131.1235 Z" clip-path="url(#clipPath2)" stroke="none"/>
      <path fill="none" d="M358.1419 524.4919 L423.9125 489.2921" clip-path="url(#clipPath2)"/>
      <path d="M351.0885 528.2668 L364.0279 527.0128 L359.0236 524.02 L359.3093 518.196 Z" clip-path="url(#clipPath2)" stroke="none"/>
      <path d="M430.9659 485.5172 L418.0265 486.7711 L423.0308 489.7639 L422.7451 495.5879 Z" clip-path="url(#clipPath2)" stroke="none"/>
      <path fill="none" d="M446.5124 521.3655 L463.4943 492.4011" clip-path="url(#clipPath2)"/>
      <path d="M442.4662 528.2668 L452.8488 520.4437 L447.0182 520.5028 L444.2222 515.3859 Z" clip-path="url(#clipPath2)" stroke="none"/>
      <path d="M467.5406 485.4998 L457.1579 493.3228 L462.9886 493.2637 L465.7845 498.3806 Z" clip-path="url(#clipPath2)" stroke="none"/>
      <path fill="none" d="M530.3293 528.2668 L507.021 492.2178" clip-path="url(#clipPath2)"/>
      <path d="M502.6772 485.4998 L504.994 498.2917 L507.5639 493.0576 L513.3916 492.862 Z" clip-path="url(#clipPath2)" stroke="none"/>
      <path fill="none" d="M618.9735 528.2668 L545.2307 489.2579" clip-path="url(#clipPath2)"/>
      <path d="M538.1592 485.5172 L546.4285 495.548 L546.1147 489.7255 L551.1045 486.7086 Z" clip-path="url(#clipPath2)" stroke="none"/>
      <path fill="none" d="M484.25 263.6424 L484.25 203.0899" clip-path="url(#clipPath2)"/>
      <path d="M484.25 195.0899 L479.25 207.0899 L484.25 204.0899 L489.25 207.0899 Z" clip-path="url(#clipPath2)" stroke="none"/>
      <path fill="none" d="M484.25 339.6385 L484.25 362.2737" clip-path="url(#clipPath2)"/>
      <path d="M484.25 331.6385 L479.25 343.6385 L484.25 340.6385 L489.25 343.6385 Z" clip-path="url(#clipPath2)" stroke="none"/>
      <path d="M484.25 370.2737 L489.25 358.2737 L484.25 361.2737 L479.25 358.2737 Z" clip-path="url(#clipPath2)" stroke="none"/>
      <path fill="none" d="M578.4869 380.0625 L526.8448 380.0625" clip-path="url(#clipPath2)"/>
      <path d="M586.4869 380.0625 L574.4869 375.0625 L577.4869 380.0625 L574.4869 385.0625 Z" clip-path="url(#clipPath2)" stroke="none"/>
      <path d="M518.8448 380.0625 L530.8448 385.0625 L527.8448 380.0625 L530.8448 375.0625 Z" clip-path="url(#clipPath2)" stroke="none"/>
      <path fill="none" d="M484.25 397.8675 L484.25 420.5146" clip-path="url(#clipPath2)"/>
      <path d="M484.25 389.8675 L479.25 401.8675 L484.25 398.8675 L489.25 401.8675 Z" clip-path="url(#clipPath2)" stroke="none"/>
      <path d="M484.25 428.5146 L489.25 416.5146 L484.25 419.5146 L479.25 416.5146 Z" clip-path="url(#clipPath2)" stroke="none"/>
    </g>
  </g>
</svg>
